<svg width="121" height="23" viewBox="0 0 121 23" fill="none" xmlns="http://www.w3.org/2000/svg">
<path d="M8.02447 4.96352C8.17415 4.50287 8.82585 4.50287 8.97553 4.96353L10.1839 8.68237C10.2508 8.88838 10.4428 9.02786 10.6594 9.02786H14.5696C15.054 9.02786 15.2554 9.64767 14.8635 9.93237L11.7001 12.2307C11.5248 12.3581 11.4515 12.5838 11.5184 12.7898L12.7268 16.5086C12.8764 16.9693 12.3492 17.3523 11.9573 17.0676L8.79389 14.7693C8.61865 14.6419 8.38135 14.6419 8.20611 14.7693L5.04267 17.0676C4.65081 17.3523 4.12357 16.9693 4.27325 16.5086L5.48157 12.7898C5.54851 12.5838 5.47518 12.3581 5.29994 12.2307L2.1365 9.93237C1.74464 9.64767 1.94603 9.02786 2.43039 9.02786H6.34062C6.55723 9.02786 6.74921 8.88838 6.81614 8.68237L8.02447 4.96352Z" fill="#F0AF00"/>
<path d="M26.0245 4.96352C26.1741 4.50287 26.8259 4.50287 26.9755 4.96353L28.1839 8.68237C28.2508 8.88838 28.4428 9.02786 28.6594 9.02786H32.5696C33.054 9.02786 33.2554 9.64767 32.8635 9.93237L29.7001 12.2307C29.5248 12.3581 29.4515 12.5838 29.5184 12.7898L30.7268 16.5086C30.8764 16.9693 30.3492 17.3523 29.9573 17.0676L26.7939 14.7693C26.6186 14.6419 26.3814 14.6419 26.2061 14.7693L23.0427 17.0676C22.6508 17.3523 22.1236 16.9693 22.2732 16.5086L23.4816 12.7898C23.5485 12.5838 23.4752 12.3581 23.2999 12.2307L20.1365 9.93237C19.7446 9.64767 19.946 9.02786 20.4304 9.02786H24.3406C24.5572 9.02786 24.7492 8.88838 24.8161 8.68237L26.0245 4.96352Z" fill="#F0AF00"/>
<path d="M44.0245 4.96352C44.1741 4.50287 44.8259 4.50287 44.9755 4.96353L46.1839 8.68237C46.2508 8.88838 46.4428 9.02786 46.6594 9.02786H50.5696C51.054 9.02786 51.2554 9.64767 50.8635 9.93237L47.7001 12.2307C47.5248 12.3581 47.4515 12.5838 47.5184 12.7898L48.7268 16.5086C48.8764 16.9693 48.3492 17.3523 47.9573 17.0676L44.7939 14.7693C44.6186 14.6419 44.3814 14.6419 44.2061 14.7693L41.0427 17.0676C40.6508 17.3523 40.1236 16.9693 40.2732 16.5086L41.4816 12.7898C41.5485 12.5838 41.4752 12.3581 41.2999 12.2307L38.1365 9.93237C37.7446 9.64767 37.946 9.02786 38.4304 9.02786H42.3406C42.5572 9.02786 42.7492 8.88838 42.8161 8.68237L44.0245 4.96352Z" fill="#F0AF00"/>
<path d="M62.0245 4.96352C62.1741 4.50287 62.8259 4.50287 62.9755 4.96353L64.1839 8.68237C64.2508 8.88838 64.4428 9.02786 64.6594 9.02786H68.5696C69.054 9.02786 69.2554 9.64767 68.8635 9.93237L65.7001 12.2307C65.5248 12.3581 65.4515 12.5838 65.5184 12.7898L66.7268 16.5086C66.8764 16.9693 66.3492 17.3523 65.9573 17.0676L62.7939 14.7693C62.6186 14.6419 62.3814 14.6419 62.2061 14.7693L59.0427 17.0676C58.6508 17.3523 58.1236 16.9693 58.2732 16.5086L59.4816 12.7898C59.5485 12.5838 59.4752 12.3581 59.2999 12.2307L56.1365 9.93237C55.7446 9.64767 55.946 9.02786 56.4304 9.02786H60.3406C60.5572 9.02786 60.7492 8.88838 60.8161 8.68237L62.0245 4.96352Z" fill="#F0AF00"/>
<path d="M80.0245 4.96352C80.1741 4.50287 80.8259 4.50287 80.9755 4.96353L82.1839 8.68237C82.2508 8.88838 82.4428 9.02786 82.6594 9.02786H86.5696C87.054 9.02786 87.2554 9.64767 86.8635 9.93237L83.7001 12.2307C83.5248 12.3581 83.4515 12.5838 83.5184 12.7898L84.7268 16.5086C84.8764 16.9693 84.3492 17.3523 83.9573 17.0676L80.7939 14.7693C80.6186 14.6419 80.3814 14.6419 80.2061 14.7693L77.0427 17.0676C76.6508 17.3523 76.1236 16.9693 76.2732 16.5086L77.4816 12.7898C77.5485 12.5838 77.4752 12.3581 77.2999 12.2307L74.1365 9.93237C73.7446 9.64767 73.946 9.02786 74.4304 9.02786H78.3406C78.5572 9.02786 78.7492 8.88838 78.8161 8.68237L80.0245 4.96352Z" fill="#231F20"/>
<path d="M94.18 19.604C93.4547 18.42 92.9267 17.2253 92.596 16.02C92.276 14.804 92.116 13.5613 92.116 12.292C92.116 11.0227 92.276 9.78533 92.596 8.58C92.9267 7.364 93.4547 6.164 94.18 4.98L95.316 5.428C94.804 6.63333 94.4307 7.78533 94.196 8.884C93.9613 9.98267 93.844 11.1187 93.844 12.292C93.844 13.4547 93.9613 14.5907 94.196 15.7C94.4307 16.7987 94.804 17.9507 95.316 19.156L94.18 19.604ZM99.859 16.644C99.2723 16.644 98.6857 16.5267 98.099 16.292C97.523 16.0573 97.0323 15.7373 96.627 15.332L97.203 14.068C97.5977 14.452 98.0243 14.7453 98.483 14.948C98.9417 15.14 99.4057 15.236 99.875 15.236C100.878 15.236 101.64 14.8787 102.163 14.164C102.696 13.4387 102.963 12.3613 102.963 10.932V10.276C102.75 10.9267 102.376 11.4387 101.843 11.812C101.32 12.1853 100.707 12.372 100.003 12.372C99.3523 12.372 98.771 12.2173 98.259 11.908C97.747 11.5987 97.347 11.1773 97.059 10.644C96.771 10.1 96.627 9.48133 96.627 8.788C96.627 8.06267 96.7817 7.42267 97.091 6.868C97.4003 6.30267 97.827 5.86533 98.371 5.556C98.9257 5.236 99.5603 5.076 100.275 5.076C101.64 5.076 102.691 5.56133 103.427 6.532C104.174 7.50267 104.547 8.86267 104.547 10.612C104.547 12.5427 104.131 14.0307 103.299 15.076C102.478 16.1213 101.331 16.644 99.859 16.644ZM100.387 11.012C101.038 11.012 101.566 10.804 101.971 10.388C102.376 9.96133 102.579 9.40667 102.579 8.724C102.579 8.04133 102.376 7.48667 101.971 7.06C101.566 6.62267 101.038 6.404 100.387 6.404C99.7363 6.404 99.2083 6.62267 98.803 7.06C98.3977 7.48667 98.195 8.04133 98.195 8.724C98.195 9.40667 98.3977 9.96133 98.803 10.388C99.2083 10.804 99.7363 11.012 100.387 11.012ZM110.093 16.644C109.335 16.644 108.615 16.532 107.933 16.308C107.25 16.0733 106.679 15.748 106.221 15.332L106.797 14.052C107.298 14.4573 107.815 14.756 108.349 14.948C108.882 15.14 109.447 15.236 110.045 15.236C110.813 15.236 111.394 15.0707 111.789 14.74C112.194 14.4093 112.397 13.9347 112.397 13.316C112.397 12.6973 112.194 12.2387 111.789 11.94C111.394 11.6413 110.818 11.492 110.061 11.492H108.317V10.1H109.901C110.573 10.1 111.101 9.92933 111.485 9.588C111.879 9.24667 112.077 8.77733 112.077 8.18C112.077 7.636 111.895 7.22 111.533 6.932C111.17 6.63333 110.653 6.484 109.981 6.484C108.839 6.484 107.842 6.89467 106.989 7.716L106.413 6.452C106.85 6.01467 107.394 5.67867 108.045 5.444C108.706 5.19867 109.394 5.076 110.109 5.076C111.239 5.076 112.119 5.33733 112.749 5.86C113.378 6.372 113.693 7.08667 113.693 8.004C113.693 8.62267 113.533 9.16667 113.213 9.636C112.903 10.1053 112.471 10.4467 111.917 10.66C112.589 10.8307 113.106 11.1613 113.469 11.652C113.831 12.132 114.013 12.724 114.013 13.428C114.013 14.42 113.661 15.204 112.957 15.78C112.263 16.356 111.309 16.644 110.093 16.644ZM116.759 19.604L115.623 19.156C116.124 17.9293 116.492 16.7667 116.727 15.668C116.961 14.5693 117.079 13.444 117.079 12.292C117.079 11.14 116.961 10.0147 116.727 8.916C116.492 7.81733 116.124 6.65467 115.623 5.428L116.759 4.98C117.484 6.17467 118.007 7.38 118.327 8.596C118.657 9.80133 118.823 11.0333 118.823 12.292C118.823 13.5613 118.657 14.804 118.327 16.02C118.007 17.2253 117.484 18.42 116.759 19.604Z" fill="black"/>
</svg>
