<svg width="32" height="32" viewBox="0 0 32 32" fill="none" xmlns="http://www.w3.org/2000/svg">
<circle cx="16" cy="16" r="16" fill="#A880EC"/>
<path fill-rule="evenodd" clip-rule="evenodd" d="M10 16C10 15.5029 10.4029 15.1 10.9 15.1H18.8655L16.2762 12.7488C15.9179 12.4042 15.9067 11.8345 16.2513 11.4762C16.5958 11.1179 17.1655 11.1067 17.5238 11.4513L21.7238 15.3513C21.9003 15.5209 22 15.7552 22 16C22 16.2448 21.9003 16.4791 21.7238 16.6488L17.5238 20.5488C17.1655 20.8933 16.5958 20.8821 16.2513 20.5238C15.9067 20.1655 15.9179 19.5958 16.2762 19.2513L18.8655 16.9H10.9C10.4029 16.9 10 16.4971 10 16Z" fill="white"/>
</svg>
