<svg width="32" height="32" viewBox="0 0 32 32" fill="none" xmlns="http://www.w3.org/2000/svg">
<circle cx="16" cy="16" r="16" fill="#A880EC"/>
<path fill-rule="evenodd" clip-rule="evenodd" d="M22 16C22 16.4971 21.5971 16.9 21.1 16.9H13.1345L15.7238 19.2513C16.0821 19.5958 16.0933 20.1655 15.7487 20.5238C15.4042 20.8821 14.8345 20.8933 14.4762 20.5488L10.2762 16.6488C10.0997 16.4791 10 16.2448 10 16C10 15.7552 10.0997 15.5209 10.2762 15.3513L14.4762 11.4513C14.8345 11.1067 15.4042 11.1179 15.7487 11.4762C16.0933 11.8345 16.0821 12.4042 15.7238 12.7488L13.1345 15.1L21.1 15.1C21.5971 15.1 22 15.5029 22 16Z" fill="white"/>
</svg>
