<svg width="44" height="44" viewBox="0 0 44 44" fill="none" xmlns="http://www.w3.org/2000/svg">
<path fill-rule="evenodd" clip-rule="evenodd" d="M14 16.75C14 16.3358 14.3358 16 14.75 16H29.25C29.6642 16 30 16.3358 30 16.75C30 17.1642 29.6642 17.5 29.25 17.5H14.75C14.3358 17.5 14 17.1642 14 16.75ZM14 22C14 21.5858 14.3358 21.25 14.75 21.25H29.25C29.6642 21.25 30 21.5858 30 22C30 22.4142 29.6642 22.75 29.25 22.75H14.75C14.3358 22.75 14 22.4142 14 22ZM14 27.25C14 26.8358 14.3358 26.5 14.75 26.5H29.25C29.6642 26.5 30 26.8358 30 27.25C30 27.6642 29.6642 28 29.25 28H14.75C14.3358 28 14 27.6642 14 27.25Z" fill="white"/>
</svg>
